<?xml version="1.0" encoding="utf-8"?>
<!-- Generator: Adobe Illustrator 22.1.0, SVG Export Plug-In . SVG Version: 6.00 Build 0)  -->
<svg version="1.1" id="Capa_1" xmlns="http://www.w3.org/2000/svg" xmlns:xlink="http://www.w3.org/1999/xlink" x="0px" y="0px"
	 viewBox="0 0 28 33" style="enable-background:new 0 0 28 33;" xml:space="preserve">
<style type="text/css">
	.st0{opacity:0.5;}
	.st1{fill:none;stroke:#FFFFFF;stroke-miterlimit:10;}
	.st2{fill:none;stroke:#FFFFFF;stroke-linecap:round;stroke-linejoin:round;}
</style>
<title>Group 4</title>
<desc>Created with Sketch.</desc>
<g class="st0">
	<path class="st1" d="M23.2,24.4l3.9,0v4.4c0,1.1-0.9,2-2,2h0c-1.1,0-2-0.9-2-2V4.1c0-1.1,0.9-2,2-2h0c1.1,0,2,0.9,2,2V8h-3.8"/>
	<path class="st1" d="M25.5,30.9H2.8c-1.1,0-2-0.9-2-2V4.1c0-1.1,0.9-2,2-2h22.3"/>
	<polygon class="st2" points="11.5,11.2 8.2,8.8 4.9,11.2 4.9,2.1 11.5,2.1 	"/>
	<line class="st2" x1="4.3" y1="17.4" x2="20.3" y2="17.4"/>
	<line class="st2" x1="4.3" y1="21.6" x2="20.3" y2="21.6"/>
	<line class="st2" x1="4.3" y1="25.7" x2="20.3" y2="25.7"/>
</g>
</svg>
