<?xml version="1.0" encoding="UTF-8" standalone="no"?>
<svg
   xmlns:dc="http://purl.org/dc/elements/1.1/"
   xmlns:cc="http://creativecommons.org/ns#"
   xmlns:rdf="http://www.w3.org/1999/02/22-rdf-syntax-ns#"
   xmlns:svg="http://www.w3.org/2000/svg"
   xmlns="http://www.w3.org/2000/svg"
   xmlns:sodipodi="http://sodipodi.sourceforge.net/DTD/sodipodi-0.dtd"
   xmlns:inkscape="http://www.inkscape.org/namespaces/inkscape"
   width="16px"
   height="16px"
   viewBox="0 0 14 16"
   version="1.1"
   id="svg900"
   sodipodi:docname="copy_icon.svg"
   inkscape:version="0.92.3 (3ce5693, 2018-03-11)">
  <metadata
     id="metadata904">
    <rdf:RDF>
      <cc:Work
         rdf:about="">
        <dc:format>image/svg+xml</dc:format>
        <dc:type
           rdf:resource="http://purl.org/dc/dcmitype/StillImage" />
      </cc:Work>
    </rdf:RDF>
  </metadata>
  <sodipodi:namedview
     pagecolor="#ffffff"
     bordercolor="#666666"
     borderopacity="1"
     objecttolerance="10"
     gridtolerance="10"
     guidetolerance="10"
     inkscape:pageopacity="0"
     inkscape:pageshadow="2"
     inkscape:window-width="1855"
     inkscape:window-height="926"
     id="namedview902"
     showgrid="false"
     inkscape:zoom="47.9375"
     inkscape:cx="7.2816167"
     inkscape:cy="8"
     inkscape:window-x="65"
     inkscape:window-y="24"
     inkscape:window-maximized="1"
     inkscape:current-layer="Welcome" />
  <!-- Generator: Sketch 49.3 (51167) - http://www.bohemiancoding.com/sketch -->
  <title
     id="title889">Page 1</title>
  <desc
     id="desc891">Created with Sketch.</desc>
  <defs
     id="defs893" />
  <g
     id="Welcome"
     stroke="none"
     stroke-width="1"
     fill="none"
     fill-rule="evenodd">
    <g
       id="03-wallet-receive"
       transform="translate(-876.000000, -243.000000)"
       stroke="#516889"
       style="stroke:#000000;stroke-opacity:1">
      <g
         id="Page-1"
         transform="translate(876.000000, 243.000000)"
         style="stroke:#000000;stroke-opacity:1">
        <path
           d="M11.0064,3.5 L11.5004,3.5 C12.0524,3.5 12.5004,3.948 12.5004,4.5 L12.5004,14.5 C12.5004,15.052 12.0524,15.5 11.5004,15.5 L4.5004,15.5 C3.9474,15.5 3.5004,15.052 3.5004,14.5 L3.5004,14.002"
           id="Stroke-1"
           style="stroke:#000000;stroke-opacity:1" />
        <path
           d="M1.5,0.5 L8.5,0.5 C9.052,0.5 9.5,0.948 9.5,1.5 L9.5,11.5 C9.5,12.052 9.052,12.5 8.5,12.5 L1.5,12.5 C0.948,12.5 0.5,12.052 0.5,11.5 L0.5,1.5 C0.5,0.948 0.948,0.5 1.5,0.5 Z"
           id="Stroke-3"
           style="stroke:#000000;stroke-opacity:1" />
      </g>
    </g>
  </g>
</svg>
