<?xml version="1.0" encoding="utf-8"?>
<!-- Generator: Adobe Illustrator 22.1.0, SVG Export Plug-In . SVG Version: 6.00 Build 0)  -->
<svg version="1.1" id="Capa_1" xmlns="http://www.w3.org/2000/svg" xmlns:xlink="http://www.w3.org/1999/xlink" x="0px" y="0px"
	 viewBox="0 0 31 30" style="enable-background:new 0 0 31 30;" xml:space="preserve">
<style type="text/css">
	.st0{fill:none;stroke:#FFFFFF;stroke-linecap:square;stroke-linejoin:round;}
	.st1{fill:none;stroke:#FFFFFF;stroke-linecap:round;stroke-linejoin:round;}
</style>
<title>general settings icon</title>
<desc>Created with Sketch.</desc>
<g id="xplodde-symbols">
	<g id="menu-settings" transform="translate(-29.000000, -185.000000)">
		<g id="general-settings-icon" transform="translate(30.000000, 186.000000)">
			<path id="Shape" class="st0" d="M29.3,3.9H11.6"/>
			<path id="Shape_1_" class="st0" d="M5.3,3.9H0.2"/>
			<path id="Shape_2_" class="st0" d="M29.3,14.1h-3.8"/>
			<path id="Shape_3_" class="st0" d="M19.2,14.1h-19"/>
			<path id="Shape_4_" class="st0" d="M29.3,24.2H7.8"/>
			<path id="Shape_5_" class="st0" d="M1.5,24.2H0.2"/>
			<path id="Shape_6_" class="st1" d="M7.2,7.7L7.2,7.7c-1,0-1.9-0.9-1.9-1.9V2c0-1,0.9-1.9,1.9-1.9l0,0c1,0,1.9,0.9,1.9,1.9v3.8
				C9.1,6.9,8.2,7.7,7.2,7.7z"/>
			<path id="Shape_7_" class="st1" d="M21.1,17.9L21.1,17.9c-1,0-1.9-0.9-1.9-1.9v-3.8c0-1,0.9-1.9,1.9-1.9l0,0c1,0,1.9,0.9,1.9,1.9
				V16C23,17,22.2,17.9,21.1,17.9z"/>
			<path id="Shape_8_" class="st1" d="M3.4,28L3.4,28c-1,0-1.9-0.9-1.9-1.9v-3.8c0-1,0.9-1.9,1.9-1.9l0,0c1,0,1.9,0.9,1.9,1.9v3.8
				C5.3,27.1,4.4,28,3.4,28z"/>
		</g>
	</g>
</g>
</svg>
