<svg xmlns="http://www.w3.org/2000/svg" viewBox="0 0 96 102">
  <defs>
    <style>
      .cls-1 {
        fill: #fff;
      }

      .cls-2, .cls-3, .cls-4, .cls-6 {
        fill: none;
      }

      .cls-2 {
        stroke: #2f363d;
      }

      .cls-2, .cls-3 {
        stroke-miterlimit: 10;
      }

      .cls-3 {
        stroke: #d1494c;
      }

      .cls-4 {
        stroke: #707070;
        opacity: 0;
      }

      .cls-5 {
        stroke: none;
      }
    </style>
  </defs>
  <g id="Group_3248" data-name="Group 3248" transform="translate(2573 -4989)">
    <g id="Group_3243" data-name="Group 3243" transform="translate(3 9)">
      <g id="Group_3237" data-name="Group 3237" transform="translate(-2566 4989)">
        <g id="Group_3233" data-name="Group 3233">
          <path id="Path_3044" data-name="Path 3044" class="cls-1" d="M71.9,84.2H5.7A5.763,5.763,0,0,1,0,78.5V5.9A5.763,5.763,0,0,1,5.7.2H70.9L66.2,2.5l-1,3.4V78.5C65.1,78.4,65.4,84.4,71.9,84.2Z"/>
        </g>
        <g id="Group_3234" data-name="Group 3234">
          <path id="Path_3045" data-name="Path 3045" class="cls-1" d="M72.7,84.2H68.9a3.757,3.757,0,0,1-3.7-3.7V66.9a1.538,1.538,0,0,1,1.5-1.5h8.7a1.538,1.538,0,0,1,1.5,1.5v13A4.247,4.247,0,0,1,72.7,84.2Z" transform="translate(-1)"/>
        </g>
        <g id="Group_3235" data-name="Group 3235">
          <path id="Path_3046" data-name="Path 3046" class="cls-1" d="M69.2,0H73a3.757,3.757,0,0,1,3.7,3.7V16.3a1.538,1.538,0,0,1-1.5,1.5H66.5A1.538,1.538,0,0,1,65,16.3V4.3A4.247,4.247,0,0,1,69.2,0Z"/>
        </g>
      </g>
      <path id="Path_2977" data-name="Path 2977" class="cls-2" d="M65.6,65.7l11.4.1V78.7a5.7,5.7,0,0,1-5.7,5.7h0a5.7,5.7,0,0,1-5.7-5.7V6.2A5.7,5.7,0,0,1,71.3.5h0A5.7,5.7,0,0,1,77,6.2V17.7H66" transform="translate(-2566.5 4988.5)"/>
      <path id="Path_2978" data-name="Path 2978" class="cls-2" d="M72.4,84.5H6.2A5.763,5.763,0,0,1,.5,78.8V6.2A5.763,5.763,0,0,1,6.2.5H71.4" transform="translate(-2566.5 4988.5)"/>
      <g id="Group_3063" data-name="Group 3063" transform="translate(-2566.5 4988.5)">
        <path id="Path_2979" data-name="Path 2979" class="cls-3" d="M28,32.5,16,38.3,13,51.4l8.3,10.4H34.7l8.4-10.4-3-13.1Z"/>
        <path id="Path_2980" data-name="Path 2980" class="cls-3" d="M47.4,48.4l-3-13.1-12-5.8L20.3,35.3l-3,13.1,8.4,10.4H39.1Z"/>
        <path id="Path_2981" data-name="Path 2981" class="cls-3" d="M51.7,45.4l-3-13.1-12-5.8L24.6,32.3l-3,13.1L30,55.8H43.4Z"/>
        <path id="Path_2982" data-name="Path 2982" class="cls-3" d="M41,23.5,28.9,29.3l-3,13.1,8.4,10.4H47.7L56,42.4,53.1,29.3Z"/>
      </g>
    </g>
    <g id="Rectangle_1645" data-name="Rectangle 1645" class="cls-4" transform="translate(-2573 4989)">
      <rect class="cls-5" width="96" height="102"/>
      <rect class="cls-6" x="0.5" y="0.5" width="95" height="101"/>
    </g>
  </g>
</svg>
