<?xml version="1.0" encoding="utf-8"?>
<!-- Generator: Adobe Illustrator 22.1.0, SVG Export Plug-In . SVG Version: 6.00 Build 0)  -->
<svg version="1.1" id="Capa_1" xmlns="http://www.w3.org/2000/svg" xmlns:xlink="http://www.w3.org/1999/xlink" x="0px" y="0px"
	 viewBox="0 0 26 26" style="enable-background:new 0 0 26 26;" xml:space="preserve">
<style type="text/css">
	.st0{opacity:0.5;}
	.st1{fill:none;stroke:#FFFFFF;stroke-linecap:round;stroke-linejoin:round;}
	.st2{fill:none;stroke:#FFFFFF;stroke-linecap:square;stroke-linejoin:round;stroke-dasharray:2,5;}
	.st3{opacity:0.5;fill:#FFFFFF;enable-background:new    ;}
</style>
<title>Page 1 Copy 2</title>
<desc>Created with Sketch.</desc>
<g>
	<g id="xplodde-symbols_4_" class="st0">
		<g id="off-token---general-copy_3_" transform="translate(-179.000000, -28.000000)">
			<g id="Page-1_3_" transform="translate(179.000000, 28.000000)">
				<path id="Stroke-7_4_" class="st1" d="M25.2,13c0,6.7-5.5,12.2-12.2,12.2S0.8,19.8,0.8,13S6.3,0.8,13,0.8S25.2,6.3,25.2,13z"/>
			</g>
		</g>
	</g>
	<g id="xplodde-symbols_3_" class="st0">
		<g id="off-token---general-copy_2_" transform="translate(-179.000000, -28.000000)">
			<g id="Page-1_2_" transform="translate(179.000000, 28.000000)">
				<path id="Stroke-7_3_" class="st2" d="M23.1,12.8c0,5.6-4.5,10.1-10.1,10.1S2.9,18.4,2.9,12.8S7.4,2.7,13,2.7
					S23.1,7.2,23.1,12.8z"/>
			</g>
		</g>
	</g>
	<path class="st3" d="M13.1,5.3l-4.6,8.2l4.6,6.8l4.5-6.8L13.1,5.3z M16.2,13.1L13,14.4l-3.1-1.2l3.2-5.6L16.2,13.1z M13.1,18.3
		l-2.6-3.8l2.6,1l2.6-1L13.1,18.3z"/>
</g>
</svg>
