<?xml version="1.0" encoding="utf-8"?>
<!-- Generator: Adobe Illustrator 22.1.0, SVG Export Plug-In . SVG Version: 6.00 Build 0)  -->
<svg version="1.1" id="Capa_1" xmlns="http://www.w3.org/2000/svg" xmlns:xlink="http://www.w3.org/1999/xlink" x="0px" y="0px"
	 viewBox="0 0 32 27" style="enable-background:new 0 0 32 27;" xml:space="preserve">
<style type="text/css">
	.st0{opacity:0.5;fill:none;stroke:#FFFFFF;stroke-linecap:round;stroke-linejoin:round;}
</style>
<title>waller2</title>
<desc>Created with Sketch.</desc>
<path class="st0" d="M28.5,6.6V4.9c0-0.6-0.5-1.1-1.1-1.1H4.8c-0.6,0-1.1,0.5-1.1,1.1v1.7"/>
<path class="st0" d="M4.4,0.8c-1.7,0-3,1.4-3,3v19.2c0,1.7,1.4,3,3,3h23.7c1.5,0,2.7-1.2,2.7-2.7V3.6c0-1.5-1.2-2.7-2.7-2.7H4.4z"/>
<path class="st0" d="M32,18.1"/>
<path class="st0" d="M28.2,7.7"/>
<path class="st0" d="M1.4,3.7c0,1.6,1.3,2.9,2.9,2.9H27c2.1,0,3.8,0.5,3.8,2.6v2c0,1.6-1,2.3-2.3,2.3h-6.3c-1.6,0-2.9,1.3-2.9,2.9
	s1.3,2.9,2.9,2.9h7.5c0.6,0,1.2-0.5,1.2-1.2v-1.8"/>
<path class="st0" d="M2.5,5.4"/>
<circle class="st0" cx="23" cy="16.4" r="1.2"/>
</svg>
