<?xml version="1.0" encoding="UTF-8"?>
<svg width="32px" height="27px" viewBox="0 0 32 27" version="1.1" xmlns="http://www.w3.org/2000/svg" xmlns:xlink="http://www.w3.org/1999/xlink">
    <!-- Generator: Sketch 49.3 (51167) - http://www.bohemiancoding.com/sketch -->
    <title>waller2</title>
    <desc>Created with Sketch.</desc>
    <defs></defs>
    <g id="xplodde-symbols" stroke="none" stroke-width="1" fill="none" fill-rule="evenodd" stroke-linecap="round" stroke-linejoin="round">
        <g id="menu-wallet-b" transform="translate(-29.000000, -27.000000)" stroke="#FFFFFF">
            <g id="waller2" transform="translate(29.000000, 27.000000)">
                <path d="M30.119415,18.4696274 L30.119415,25.1354186 C30.119415,25.8685977 29.5194358,26.4685768 28.7862567,26.4685768 L3.45393383,26.4685768" id="Shape"></path>
                <path d="M3.45393383,6.47120333 L28.7862567,6.47120333 C29.5194358,6.47120333 30.119415,7.07118245 30.119415,7.80436156 L30.119415,13.1369945" id="Shape"></path>
                <polyline id="Shape" points="0.787617373 6.47120333 0.787617373 7.80436156 0.787617373 23.8034186"></polyline>
                <path d="M3.45393383,1.13741215 C1.98757561,1.13741215 0.787617373,2.33737038 0.787617373,3.80372861 C0.787617373,5.27008684 1.98757561,6.47004507 3.45393383,6.47004507" id="Shape"></path>
                <path d="M0.787617373,7.80436156 L0.787617373,3.80372861" id="Shape"></path>
                <path d="M26.1199403,6.47120333 L26.1199403,2.47057038 C26.1199403,1.73391648 25.5234359,1.13741215 24.786782,1.13741215 L3.45393383,1.13741215" id="Shape"></path>
                <path d="M0.787617373,23.8034186 C0.787617373,25.2697768 1.98757561,26.469735 3.45393383,26.469735" id="Shape"></path>
                <path d="M22.1193073,18.4696274 C20.6529491,18.4696274 19.4529909,17.2696692 19.4529909,15.8033109 C19.4529909,14.3369527 20.6529491,13.1369945 22.1193073,13.1369945" id="Shape"></path>
                <path d="M22.1193073,18.4696274 L30.119415,18.4696274 C30.8560689,18.4696274 31.4525732,17.8731231 31.4525732,17.1364692 L31.4525732,14.4701527 C31.4525732,13.7334988 30.8560689,13.1369945 30.119415,13.1369945 L22.1193073,13.1369945" id="Shape"></path>
            </g>
        </g>
    </g>
</svg>