<?xml version="1.0" encoding="UTF-8"?>
<svg width="28px" height="33px" viewBox="0 0 28 33" version="1.1" xmlns="http://www.w3.org/2000/svg" xmlns:xlink="http://www.w3.org/1999/xlink">
    <!-- Generator: Sketch 49.3 (51167) - http://www.bohemiancoding.com/sketch -->
    <title>Group 4</title>
    <desc>Created with Sketch.</desc>
    <defs></defs>
    <g id="xplodde-symbols" stroke="none" stroke-width="1" fill="none" fill-rule="evenodd" opacity="0.5" stroke-linecap="round" stroke-linejoin="round">
        <g id="menu-settings" transform="translate(-31.000000, -104.000000)" stroke="#FFFFFF">
            <g id="Group-4" transform="translate(31.000000, 104.000000)">
                <g id="Group">
                    <path d="M6.53142857,7.664 L0.788571429,7.664 L7.67885714,0.773714286 L7.67885714,6.51542857 C7.68,7.14971429 7.16571429,7.664 6.53142857,7.664 Z" id="Shape"></path>
                    <path d="M22.6091429,7.664 L22.6091429,26.0388571 C22.6091429,26.6731429 22.0948571,27.1874286 21.4605714,27.1874286 L1.93714286,27.1874286 C1.30285714,27.1874286 0.788571429,26.6731429 0.788571429,26.0388571 L0.788571429,10.0331429" id="Shape"></path>
                    <path d="M9.976,0.772571429 L21.4605714,0.772571429 C22.0948571,0.772571429 22.6091429,1.28685714 22.6091429,1.92114286 L22.6091429,7.66285714" id="Shape"></path>
                </g>
                <path d="M27.0742857,12.1291429 L27.0742857,30.504 C27.0742857,31.1382857 26.56,31.6525714 25.9257143,31.6525714 L6.40342857,31.6525714 C5.76914286,31.6525714 5.25485714,31.1382857 5.25485714,30.504 L5.25485714,29.6662857" id="Shape"></path>
                <path d="M24.888,5.23885714 L25.9257143,5.23885714 C26.56,5.23885714 27.0742857,5.75314286 27.0742857,6.38742857 L27.0742857,12.1291429" id="Shape"></path>
                <path d="M4.50857143,12.7074286 L18.8891429,12.7074286" id="Shape"></path>
                <path d="M4.50857143,16.8171429 L18.8891429,16.8171429" id="Shape"></path>
                <path d="M4.50857143,20.9257143 L18.8891429,20.9257143" id="Shape"></path>
            </g>
        </g>
    </g>
</svg>