<?xml version="1.0" encoding="UTF-8"?>
<svg width="12px" height="21px" viewBox="0 0 12 21" version="1.1" xmlns="http://www.w3.org/2000/svg" xmlns:xlink="http://www.w3.org/1999/xlink">
    <!-- Generator: Sketch 49.3 (51167) - http://www.bohemiancoding.com/sketch -->
    <title>Sin título-17</title>
    <desc>Created with Sketch.</desc>
    <defs></defs>
    <g id="xplodde-symbols" stroke="none" stroke-width="1" fill="none" fill-rule="evenodd" stroke-linecap="round" stroke-linejoin="round">
        <g id="on-contract---search-contract" transform="translate(-119.000000, -27.000000)" stroke="#1D3664">
            <g id="Group" transform="translate(77.000000, 28.000000)">
                <g id="Sin-título-17" transform="translate(43.000000, 0.000000)">
                    <polygon id="Shape" points="5 19.5833333 6.25 12.0833333 3.75 12.0833333"></polygon>
                    <path d="M7.08333333,8.8675 L7.08333333,3.75 L7.91666667,3.75 C8.83666667,3.75 9.58333333,3.00416667 9.58333333,2.08333333 C9.58333333,1.1625 8.83666667,0.416666667 7.91666667,0.416666667 L2.08333333,0.416666667 C1.1625,0.416666667 0.416666667,1.1625 0.416666667,2.08333333 C0.416666667,3.00416667 1.1625,3.75 2.08333333,3.75 L2.91666667,3.75 L2.91666667,8.8675 C1.48166667,9.23916667 0.416666667,10.5316667 0.416666667,12.0833333 L9.58333333,12.0833333 C9.58333333,10.5316667 8.51833333,9.24 7.08333333,8.8675 Z" id="Shape"></path>
                </g>
            </g>
        </g>
    </g>
</svg>