<?xml version="1.0" encoding="UTF-8"?>
<svg width="26px" height="26px" viewBox="0 0 26 26" version="1.1" xmlns="http://www.w3.org/2000/svg" xmlns:xlink="http://www.w3.org/1999/xlink">
    <!-- Generator: Sketch 49.3 (51167) - http://www.bohemiancoding.com/sketch -->
    <title>Page 1 Copy 2</title>
    <desc>Created with Sketch.</desc>
    <defs></defs>
    <g id="xplodde-symbols" stroke="none" stroke-width="1" fill="none" fill-rule="evenodd" opacity="0.5" stroke-linecap="round" stroke-linejoin="round">
        <g id="menu-contract-b-nolink" transform="translate(-32.000000, -187.000000)" stroke="#FFFFFF">
            <g id="Page-1-Copy-2" transform="translate(32.000000, 187.000000)">
                <path d="M10.434,16.434 C10.434,16.434 10.434,18.434 13.244,18.434 C16.764,18.434 16.764,13.646 13.244,12.934 C9.724,12.222 9.724,7.434 13.244,7.434 C15.434,7.434 15.434,9.434 15.434,9.434" id="Stroke-1"></path>
                <path d="M13.434,5.434 L13.434,7.434" id="Stroke-3"></path>
                <path d="M13.434,18.434 L13.434,20.434" id="Stroke-5"></path>
                <path d="M12.934,2.827 C18.516,2.827 23.041,7.352 23.041,12.934 C23.041,18.516 18.516,23.041 12.934,23.041 C7.352,23.041 2.827,18.516 2.827,12.934 C2.827,7.352 7.352,2.827 12.934,2.827 Z" id="Stroke-7"></path>
                <path d="M12.934,0.5 C19.801,0.5 25.368,6.067 25.368,12.934 C25.368,19.801 19.801,25.368 12.934,25.368 C6.067,25.368 0.5,19.801 0.5,12.934 C0.5,6.067 6.067,0.5 12.934,0.5 Z" id="Stroke-9"></path>
            </g>
        </g>
    </g>
</svg>